<?xml version="1.0" encoding="UTF-8"?>
<svg id="Calque_2" data-name="Calque 2" xmlns="http://www.w3.org/2000/svg" viewBox="0 0 135.59 146.77">
  <g id="Calque_1-2" data-name="Calque 1">
    <path d="M33.29,8.64C13.78,14.91-1.37,19.36.1,34.25c.31,3.19.85,6.61,2.55,10.21,3.49-4.31,8.41-9.84,14.9-15.65,5.48-4.91,11.83-10.6,21.63-15.79,7.41-3.93,22.45-10.48,41.44-10.48.64,0,1.27,0,1.89.03l-.93-2.57c-19.87.67-30.02,2.77-48.28,8.64ZM125.72,68.03c-6.57-6.35-15.66-11.1-27.24-14.24,19.83-12.24,26.59-18.24,26.59-32.18,0-7.53-1.96-10.76-9.45-15.4-6.72-4.17-13.78-5.53-24.26-5.96l1.64,3.32c11.01,2.02,14.71,7.5,14.71,16.75,0,10.02-6.97,20.13-20.92,30.34-2.74-.2-4.94-.29-6.57-.29-6.35,0-10.95,1.21-13.8,3.63-2.85,2.42-5.22,7.13-7.12,14.14,2.56.59,4.68.88,6.39.88,5.03,0,9.68-.85,13.94-2.55,8.82-1.07,18.02,2.64,24.14,5.74,14.54,7.38,16.17,19.44,16.17,27.57,0,10.42-5.96,20.91-15.15,28.36-.73.59-3.25,2.29-4,2.83l-3.99,6.13c4.53-2.02,8.85-4.36,12.97-7.02,17.21-11.13,25.82-24.61,25.82-40.45,0-8.05-3.29-15.25-9.87-21.6ZM62.05,139.12c-15.71,0-19.73-9.14-19.73-17.4,0-2.29.72-7.17,2.16-14.64l12.86-64.56c2.16-10.35,3.24-16.11,3.24-17.29,0-4.65-2.03-6.98-6.09-6.98-3.47,0-9.52,1.64-18.16,4.91,1.57,1.9,2.36,3.99,2.36,6.28s-.56,6.32-1.67,11.88l-13.85,69.61c-1.96,9.89-2.94,16.17-2.94,18.85,0,11.33,9,16.99,27,16.99,14.99,0,28.62-2.09,40.89-6.26l4.71-6.82c-6.67,2.97-22.63,5.43-30.79,5.43Z"/>
  </g>
</svg>